<?xml version="1.0" encoding="UTF-8" standalone="no"?>
<!-- Created with Inkscape (http://www.inkscape.org/) -->

<svg
   width="210mm"
   height="297mm"
   viewBox="0 0 210 297"
   version="1.1"
   id="svg5"
   inkscape:version="1.1.2 (0a00cf5339, 2022-02-04)"
   sodipodi:docname="logo.svg"
   xmlns:inkscape="http://www.inkscape.org/namespaces/inkscape"
   xmlns:sodipodi="http://sodipodi.sourceforge.net/DTD/sodipodi-0.dtd"
   xmlns="http://www.w3.org/2000/svg"
   xmlns:svg="http://www.w3.org/2000/svg">
  <sodipodi:namedview
     id="namedview7"
     pagecolor="#ffffff"
     bordercolor="#666666"
     borderopacity="1.0"
     inkscape:pageshadow="2"
     inkscape:pageopacity="0.0"
     inkscape:pagecheckerboard="0"
     inkscape:document-units="mm"
     showgrid="false"
     inkscape:zoom="1.3273709"
     inkscape:cx="361.61708"
     inkscape:cy="524.34477"
     inkscape:window-width="1920"
     inkscape:window-height="1043"
     inkscape:window-x="0"
     inkscape:window-y="0"
     inkscape:window-maximized="1"
     inkscape:current-layer="layer1" />
  <defs
     id="defs2" />
  <g
     inkscape:label="Layer 1"
     inkscape:groupmode="layer"
     id="layer1">
    <path
       style="fill:#96242f;stroke-width:0.0857056"
       d="m 50.405749,150.21313 c 1.075958,-0.25438 4.091037,-0.69029 6.427919,-0.92932 0.518519,-0.053 1.251302,-0.13056 1.628407,-0.17227 0.377104,-0.0417 1.312366,-0.12283 2.07836,-0.18025 1.509859,-0.11319 1.585837,-0.14867 1.182347,-0.55216 -0.115702,-0.11571 -0.244293,-0.21037 -0.285757,-0.21037 -0.111483,0 -0.38991,-2.22115 -0.345306,-2.75466 0.02557,-0.30585 0.114658,-0.57431 0.266643,-0.80353 0.333662,-0.50321 0.377254,-0.83122 0.152429,-1.14696 -0.875673,-1.22977 -0.721219,-3.70322 0.307594,-4.9259 l 0.223041,-0.26507 -0.282437,-0.0578 c -0.425951,-0.0871 -0.554335,0.003 -0.554335,0.38846 0,0.25842 -0.04961,0.37061 -0.220243,0.498 -0.184798,0.13797 -0.255698,0.14828 -0.440539,0.0641 -0.492682,-0.22449 -0.508033,-0.81965 -0.02679,-1.03892 0.166775,-0.076 0.193479,-0.12365 0.119326,-0.213 -0.05254,-0.0633 -0.158301,-0.11634 -0.23502,-0.11783 -0.07672,-0.001 -0.214356,-0.0594 -0.305857,-0.12856 -0.161902,-0.12246 -0.161107,-0.12584 0.02962,-0.12584 0.107793,0 0.31539,0.085 0.461324,0.18894 0.221681,0.15785 0.364867,0.18579 0.870286,0.16982 0.332723,-0.0105 0.656891,0.0151 0.720373,0.0569 0.07758,0.0511 0.272575,-0.0186 0.594775,-0.2126 1.333176,-0.8028 3.480777,-1.1494 6.017692,-0.9712 0.683502,0.048 2.071932,0.12255 3.085401,0.16565 1.013469,0.0431 2.228345,0.11801 2.699726,0.16647 1.747372,0.17965 3.282472,0.73169 4.323939,1.55492 0.408774,0.32312 0.452311,0.34044 0.396207,0.15769 -0.172915,-0.56324 -0.171279,-0.56831 0.352295,-1.09189 0.452428,-0.45242 1.077833,-0.87038 1.30239,-0.87038 0.04526,0 0.10963,0.25523 0.143037,0.56717 0.08113,0.75761 -0.05539,1.03977 -0.685457,1.41663 -0.43129,0.25796 -0.651953,0.5255 -0.532203,0.64525 0.02473,0.0247 0.178345,-0.0884 0.341365,-0.25144 0.506562,-0.50656 1.013144,-0.69617 1.96368,-0.73498 1.004171,-0.041 1.039294,-0.003 0.655904,0.70458 -0.321805,0.59416 -0.589548,0.73758 -1.38053,0.7395 -0.296127,6.9e-4 -0.589547,0.0337 -0.652044,0.0734 -0.206812,0.13111 -0.216013,0.70416 -0.01929,1.20148 0.100501,0.25407 0.224232,0.65903 0.274958,0.89991 0.05072,0.24088 0.151747,0.54039 0.224494,0.66557 0.134273,0.23107 0.726316,0.62221 0.812042,0.53648 0.02577,-0.0258 0.20502,-0.004 0.398331,0.0478 0.320422,0.0863 0.351473,0.11936 0.351473,0.37452 0,0.33801 -0.392069,0.98614 -0.75125,1.2419 -0.446222,0.31774 -1.032135,0.39168 -1.796516,0.22672 -0.775522,-0.16736 -0.725834,-0.16581 -1.22328,-0.0383 -0.540607,0.13862 -1.815707,0.0536 -2.421183,-0.16134 -0.271044,-0.0962 -0.492807,-0.16528 -0.492807,-0.15341 0,0.0119 0.132422,0.34999 0.294272,0.75137 l 0.294271,0.72978 -0.132937,0.52773 -0.132936,0.52774 0.245766,0.30479 0.245767,0.3048 2.14264,-0.0457 c 1.178452,-0.0251 3.360678,-0.0711 4.849392,-0.10219 l 2.706751,-0.0565 -0.274222,-0.45539 c -0.469449,-0.77959 -0.474293,-1.45132 -0.01749,-2.42568 0.285353,-0.60866 0.252043,-0.5723 4.990783,-5.44816 4.48851,-4.61838 4.1433,-4.23427 3.94301,-4.38735 -0.394,-0.30113 -0.864484,-0.45128 -1.419877,-0.45313 -1.401749,-0.005 -2.857086,0.83044 -4.886638,2.80414 l -0.992906,0.96558 -0.849765,-0.69473 c -0.467371,-0.38209 -1.046706,-0.85467 -1.287411,-1.05017 -0.240705,-0.19549 -1.031339,-0.85546 -1.756964,-1.46659 -3.391978,-2.85674 -4.623372,-3.97595 -7.019556,-6.38006 -2.412016,-2.41998 -3.436451,-3.52402 -7.33108,-7.9007 l -0.883954,-0.99337 4.643584,-4.62455 c 3.487327,-3.47304 4.743753,-4.67243 5.045867,-4.8168 0.575158,-0.27485 1.565876,-0.46454 2.066553,-0.39568 0.515507,0.0709 1.407454,0.51382 2.036769,1.01141 0.393664,0.31127 1.905439,2.14966 3.293604,4.00518 0.09428,0.12602 0.344965,0.4513 0.557087,0.72285 0.212121,0.27155 0.482093,0.62001 0.599939,0.77437 0.205813,0.26958 3.018822,3.88863 3.227983,4.15293 0.223264,0.28212 1.184855,1.50551 2.559883,3.25681 2.310292,2.94249 2.441882,3.09531 4.720512,5.48167 0.42943,0.44973 0.97734,1.02981 1.21758,1.28907 l 0.43681,0.47138 12.38818,-12.38435 12.38817,-12.38434 v 1.714 c 0,1.54945 -0.12592,3.32338 -0.33412,4.71369 -1.14498,7.64565 -4.26928,14.46841 -9.34068,20.39794 -0.80536,0.94163 -3.41359,3.57782 -4.06144,4.10497 l -0.40921,0.33297 -1.00493,-0.98051 c -1.58346,-1.5448 -2.71424,-2.15575 -4.00482,-2.16368 -0.60243,-0.004 -0.74286,0.0267 -1.15703,0.25093 -0.26973,0.14599 -0.47138,0.31401 -0.47138,0.39275 0,0.0757 1.25345,1.42507 2.78544,2.99861 1.53198,1.57355 3.48549,3.57974 4.34112,4.45822 1.35203,1.38813 1.59607,1.68117 1.8641,2.23843 0.25637,0.53302 0.30808,0.73366 0.30652,1.18929 -0.002,0.60881 -0.20797,1.16972 -0.56741,1.54586 l -0.21637,0.22643 1.22846,0.0485 c 0.67565,0.0267 2.94471,0.10952 5.04236,0.18411 2.09764,0.0746 4.18029,0.15636 4.6281,0.18172 0.7624,0.0432 0.82928,0.0334 1.05113,-0.15341 l 0.23692,-0.19953 0.0202,-1.32843 0.0202,-1.32844 -0.26979,-0.52681 c -0.14838,-0.28974 -0.45214,-0.80615 -0.67501,-1.14757 -0.22288,-0.34143 -0.49785,-0.83715 -0.61105,-1.1016 -0.14485,-0.33842 -0.19041,-0.39833 -0.1538,-0.20229 0.0286,0.1532 0.017,0.27854 -0.0258,0.27854 -0.15638,0 -0.86984,-0.52845 -1.20639,-0.89356 -0.44404,-0.48172 -0.63596,-0.86607 -0.87421,-1.75075 -0.12859,-0.47746 -0.29065,-0.84411 -0.48651,-1.1007 -0.27939,-0.36603 -0.28612,-0.39097 -0.1382,-0.51236 0.14802,-0.12148 0.14726,-0.12449 -0.0159,-0.0627 -0.0943,0.0357 -0.50465,0.0811 -0.91192,0.10088 -0.61749,0.03 -0.80795,0.006 -1.14649,-0.14362 -0.30577,-0.13526 -0.58151,-0.17959 -1.11702,-0.17959 -0.63184,0 -0.73916,-0.0237 -0.9636,-0.21253 -0.30312,-0.25506 -0.46955,-0.62353 -0.43138,-0.95507 0.0214,-0.18602 0.14586,-0.3243 0.52895,-0.58772 0.56666,-0.38966 1.17032,-1.21987 1.17032,-1.60954 0,-0.58579 0.32712,-0.98405 1.00782,-1.227 0.17634,-0.0629 0.27241,-0.11612 0.21348,-0.11819 -0.0589,-0.002 -0.1072,-0.0905 -0.10729,-0.1966 0,-0.13535 -0.12852,-0.28032 -0.43075,-0.4863 -0.23681,-0.16141 -0.39856,-0.32549 -0.35943,-0.36461 0.11825,-0.11825 0.94469,0.17695 1.25282,0.44749 0.38248,0.33582 0.86585,0.35581 1.00896,0.0417 0.12144,-0.26656 0.04,-0.37235 -0.64433,-0.83707 -0.37918,-0.2575 -0.47687,-0.36268 -0.38474,-0.41424 0.28532,-0.15967 1.46475,0.29672 1.85883,0.71928 0.21827,0.23405 0.26897,0.68247 0.11061,0.97836 -0.0854,0.15961 -0.0559,0.17257 0.49851,0.21905 0.33382,0.028 0.84078,0.15002 1.16937,0.28147 0.52863,0.21149 0.687,0.23289 1.78555,0.24128 1.17317,0.009 1.22959,0.018 2.10538,0.33762 2.44143,0.89097 2.29292,0.85173 3.25681,0.86034 0.81098,0.007 0.9997,-0.0233 1.90976,-0.30893 1.84285,-0.57841 3.23734,-0.7585 4.50888,-0.5823 1.2999,0.18012 2.12331,0.62394 2.65953,1.43349 0.14996,0.2264 0.30525,0.41163 0.34509,0.41163 0.20194,0 0.78701,0.60596 0.99445,1.02996 0.32024,0.65454 0.26809,1.20862 -0.20966,2.22812 -0.19355,0.41303 -0.35191,0.81603 -0.35191,0.89557 0,0.0795 0.10067,0.2381 0.2237,0.35238 0.21492,0.19963 0.2211,0.23132 0.15734,0.80772 -0.0365,0.32997 -0.0695,0.77943 -0.0733,0.99882 -0.008,0.47109 -0.0948,0.45759 -0.5915,-0.0923 -0.5813,-0.64342 -0.55027,-1.18365 0.15269,-2.65826 0.27259,-0.57181 0.51452,-1.20731 0.5376,-1.41221 0.056,-0.49648 -0.10091,-0.93671 -0.43368,-1.21701 l -0.27282,-0.2298 -0.053,0.41983 c -0.12032,0.95274 -0.28902,1.47134 -0.81139,2.49443 -0.30235,0.59217 -0.54889,1.17755 -0.54785,1.30086 0.004,0.44668 0.59882,1.45603 1.29795,2.20157 0.24666,0.26304 0.24676,0.26357 0.1049,0.59994 -0.35907,0.8514 -0.51339,2.19295 -0.3829,3.3286 0.074,0.64394 0.068,0.77822 -0.0382,0.85705 -0.0693,0.0514 -0.1936,0.30404 -0.27625,0.56139 -0.11656,0.36297 -0.19832,0.4812 -0.36453,0.52712 -0.27389,0.0757 -1.58259,0.0935 -1.65356,0.0226 -0.10818,-0.10818 0.20283,-0.53661 0.64385,-0.88694 0.54078,-0.42958 0.56922,-0.5317 0.57624,-2.06877 0.005,-1.04355 -0.10283,-1.98142 -0.23242,-2.02578 -0.0344,-0.0118 -0.39043,-0.20463 -0.79111,-0.42853 -0.51582,-0.28825 -0.95554,-0.63229 -1.5062,-1.17845 -0.83857,-0.8317 -1.19669,-1.38658 -1.53404,-2.37682 -0.24571,-0.72127 -0.26887,-0.66843 -0.0867,0.19771 0.32458,1.54305 1.25252,2.71857 2.8322,3.58784 0.22158,0.12194 0.39666,0.24968 0.38907,0.28387 -0.008,0.0342 -0.0919,0.24436 -0.18737,0.46705 -0.2793,0.65159 -0.50454,1.55553 -0.58974,2.36676 -0.0694,0.66072 -0.10702,0.77716 -0.30039,0.92926 -0.12159,0.0956 -0.2762,0.30585 -0.34359,0.46714 -0.0674,0.16129 -0.18886,0.31871 -0.26992,0.34982 -0.17511,0.0672 -1.2541,-0.083 -1.61154,-0.22437 l -0.25134,-0.0994 0.23183,-0.23182 c 0.1275,-0.1275 0.45099,-0.34754 0.71886,-0.48898 0.46789,-0.24704 0.49464,-0.27995 0.68057,-0.83714 0.28999,-0.86906 0.45724,-1.78125 0.45476,-2.48038 l -0.002,-0.62497 -0.41437,-0.28096 c -0.22791,-0.15453 -0.65233,-0.49628 -0.94314,-0.75946 -0.44931,-0.4066 -0.51238,-0.49823 -0.41971,-0.60988 0.0945,-0.11392 0.0806,-0.12305 -0.10454,-0.0687 -0.38551,0.11326 -1.2925,0.55489 -1.68863,0.82223 -0.38586,0.26042 -0.38938,0.26102 -0.51151,0.0867 -0.15869,-0.22656 -0.50922,-0.22753 -1.81336,-0.005 -0.54979,0.0938 -1.19245,0.19606 -1.42814,0.2272 -0.33723,0.0446 -0.38438,0.068 -0.22135,0.11015 0.17825,0.046 0.23509,0.16085 0.40736,0.82268 0.24621,0.94593 0.245,0.91517 0.06,1.52984 -0.1433,0.47596 -0.14374,0.54178 -0.008,1.20064 0.12865,0.62497 0.13042,0.74052 0.0171,1.11704 -0.0695,0.23098 -0.12639,0.44464 -0.12639,0.47479 0,0.0302 0.70386,0.103 1.56413,0.16187 5.65415,0.38695 10.15565,0.8887 13.22009,1.47355 0.28282,0.054 0.5303,0.11387 0.54994,0.13309 0.0196,0.0192 -20.84538,0.0311 -46.36672,0.0263 -29.362049,-0.005 -46.276503,-0.0384 -46.059575,-0.0897 z m 13.980687,-1.58135 c 0.181447,-0.0487 0.181347,-0.0497 -0.0285,-0.27609 -0.28293,-0.30528 -0.796382,-1.23412 -0.796382,-1.44065 0,-0.0913 -0.05427,-0.37513 -0.120593,-0.63082 l -0.120593,-0.4649 0.384616,-0.42778 c 0.343704,-0.38229 0.635454,-0.83664 0.817017,-1.27237 0.112035,-0.26887 0.0034,-0.15823 -0.221604,0.22577 -0.287943,0.49134 -0.952983,1.08299 -1.510808,1.34409 l -0.445514,0.20853 0.05165,0.50538 c 0.02841,0.27796 0.05165,0.71561 0.05165,0.97257 0,0.45329 0.01338,0.47964 0.449954,0.88583 0.413854,0.38506 0.484336,0.41868 0.878482,0.41898 0.235691,1.7e-4 0.510467,-0.0217 0.610615,-0.0485 z m 5.303071,-0.29218 c 0.75421,-0.0425 2.046221,-0.10358 2.871138,-0.13584 l 1.499848,-0.0586 0.0277,-0.68289 c 0.02532,-0.62414 0.0016,-0.7437 -0.275949,-1.38973 -0.285504,-0.66458 -0.734859,-2.22221 -0.736585,-2.55327 -4.3e-4,-0.0825 -0.03935,-0.14999 -0.08649,-0.14999 -0.04941,0 -0.08571,0.26835 -0.08571,0.63363 0,0.67803 -0.03912,0.73766 -0.483903,0.73766 -0.117022,0 -1.010562,0.17027 -1.985645,0.37838 -1.935062,0.41299 -2.991168,0.56469 -3.915519,0.56245 -0.588086,-0.001 -1.572663,-0.11431 -1.894399,-0.2172 -0.155865,-0.0498 -0.15617,-0.0467 -0.0074,0.0754 0.09851,0.0809 0.121969,0.14781 0.06428,0.18347 -0.05072,0.0314 -0.08983,0.32829 -0.08855,0.67245 0.0022,0.59569 0.01512,0.6333 0.385889,1.12433 0.210983,0.27942 0.547422,0.61894 0.74764,0.75449 l 0.364035,0.24645 1.114172,-0.052 c 0.612795,-0.0286 1.731253,-0.0867 2.485463,-0.12915 z m 56.563533,-0.40653 0.49531,-0.49281 -0.0527,-1.0645 c -0.0569,-1.14927 -0.14224,-1.41321 -0.66879,-2.06844 -0.26126,-0.32511 -0.26358,-0.33679 -0.21476,-1.08332 0.0408,-0.62364 0.0337,-0.69514 -0.0406,-0.41184 -0.0495,0.18855 -0.20512,0.70921 -0.34583,1.15702 -0.14071,0.44782 -0.28911,1.0649 -0.32977,1.37129 -0.0407,0.3064 -0.11199,0.75755 -0.1585,1.00255 -0.0563,0.29656 -0.0553,0.62602 0.003,0.98562 0.10931,0.67569 0.11228,0.76183 0.0326,0.94725 -0.0564,0.13133 -0.0116,0.14998 0.36024,0.14998 0.40241,0 0.45061,-0.0258 0.91996,-0.4928 z m -50.435583,-0.0214 c -0.05045,-0.0943 -0.125972,-0.17141 -0.167817,-0.17141 -0.04184,0 -0.05487,-0.28047 -0.02894,-0.62326 0.03861,-0.51051 0.02191,-0.64419 -0.09231,-0.73899 -0.318028,-0.26394 -0.03765,-1.17314 0.525152,-1.70297 l 0.321011,-0.3022 -0.385676,0.20529 c -0.597871,0.31824 -0.736849,0.67562 -0.81258,2.08959 -0.07003,1.30753 -0.03648,1.41536 0.440415,1.41536 0.265933,0 0.284161,-0.0156 0.200754,-0.17141 z m 32.437073,-0.4071 c -0.28168,-0.67889 -0.87221,-1.61331 -1.28309,-2.03031 -0.31938,-0.32414 -0.71229,-0.57657 -1.5427,-0.99112 -2.0673,-1.03204 -2.22297,-1.18205 -4.00184,-3.85644 -0.90914,-1.36682 -1.59667,-2.20815 -1.96605,-2.40584 -0.19877,-0.10638 -0.73305,0.30074 -1.20793,0.92043 -0.21064,0.27489 -0.83788,1.18507 -1.39386,2.02264 -1.31295,1.97794 -1.66114,2.30726 -3.359069,3.17704 -1.784919,0.91434 -2.077187,1.1891 -2.840895,2.67079 l -0.353402,0.68565 7.132996,0.0436 c 3.92315,0.024 7.99164,0.0529 9.0411,0.0643 l 1.9081,0.0207 z m -18.901719,-1.34669 c 0.133362,-0.069 0.266433,-0.18782 0.295714,-0.26413 0.302553,-0.78844 -0.591851,-1.42748 -1.177806,-0.84153 -0.306931,0.30693 -0.298138,0.65781 0.02457,0.98052 0.279193,0.2792 0.497888,0.31111 0.857518,0.12514 z m 20.665929,0.0371 c 0.24014,-0.12852 0.43711,-0.55732 0.37312,-0.81228 -0.0749,-0.29826 -0.43098,-0.55647 -0.76748,-0.55647 -0.39231,0 -0.76133,0.43272 -0.68939,0.80838 0.096,0.50131 0.6545,0.7901 1.08375,0.56037 z m -15.569164,-5.17343 c 0.510574,-0.21333 0.582634,-1.00686 0.111884,-1.23189 -0.343834,-0.16436 -0.452443,-0.1741 -0.714224,-0.064 -0.565158,0.23763 -0.562351,1.04683 0.0045,1.29365 0.327519,0.14261 0.262561,0.14236 0.59785,0.002 z M 105.02164,140.857 c 0.25623,-0.23189 0.25491,-0.66286 -0.003,-0.96263 -0.4141,-0.48143 -1.26121,-0.16683 -1.26121,0.46839 0,0.65667 0.75746,0.95281 1.26416,0.49424 z m -44.048392,-1.9616 c 0.146276,-0.14627 0.128408,-0.57837 -0.02637,-0.63776 -0.175635,-0.0674 -0.556425,0.19445 -0.556425,0.38262 0,0.18935 0.161498,0.35799 0.342823,0.35799 0.07542,0 0.18341,-0.0463 0.239975,-0.10285 z m 27.840876,-2.59801 c 1.468111,-1.32565 2.489232,-1.9787 3.754528,-2.40115 0.572966,-0.19131 0.798556,-0.22285 1.417651,-0.1982 0.622737,0.0248 0.821617,0.0719 1.289837,0.30527 l 0.55358,0.27595 1.30319,-1.30442 1.30318,-1.30442 -0.48263,-0.51423 c -0.26545,-0.28283 -1.06861,-1.13132 -1.78479,-1.88553 -1.39774,-1.47194 -1.764494,-1.89577 -3.077826,-3.55678 -1.643146,-2.07813 -3.239072,-4.11123 -3.675497,-4.68232 -0.312308,-0.40867 -1.983046,-2.55968 -4.855919,-6.2518 -1.107745,-1.42363 -2.206919,-2.74854 -2.44261,-2.94425 -0.23569,-0.1957 -0.669681,-0.47528 -0.964424,-0.62129 -0.472371,-0.234 -0.596232,-0.26 -1.04487,-0.21931 -1.094443,0.0992 -1.089154,0.0949 -5.723854,4.73109 l -4.234898,4.23629 0.332113,0.36891 c 0.182663,0.2029 0.713551,0.79315 1.179752,1.31167 3.414974,3.79821 4.220423,4.65915 6.337235,6.77382 1.086969,1.08587 2.839091,2.72499 3.893606,3.64249 1.709409,1.4873 5.926552,5.0404 5.993653,5.04987 0.01432,0.002 0.432368,-0.36322 0.928993,-0.81166 z m -2.497731,-1.09107 c -0.518519,-0.42512 -1.6686,-1.39265 -2.555735,-2.15006 l -1.612974,-1.37711 0.05348,-1.16139 c 0.02942,-0.63876 0.07212,-1.25098 0.0949,-1.36047 0.03428,-0.16481 -0.199035,-0.44517 -1.355183,-1.62841 -1.955642,-2.00147 -3.925862,-4.24248 -5.382876,-6.12272 -0.210467,-0.2716 -0.392603,-0.46401 -0.404748,-0.42757 -0.01215,0.0364 0.09194,0.87435 0.231295,1.86202 0.139357,0.98768 0.242099,1.80706 0.228314,1.82085 -0.01379,0.0138 -0.0727,-0.1391 -0.130911,-0.33974 -0.107693,-0.37116 -1.280695,-4.06503 -1.340574,-4.22155 -0.03572,-0.0934 0.02288,1.76399 0.09464,2.99969 0.0435,0.74904 0.04037,0.76605 -0.10822,0.58803 -0.08416,-0.10083 -0.777875,-0.87425 -1.541595,-1.71872 -0.76372,-0.84447 -1.473242,-1.64303 -1.576716,-1.77458 l -0.188136,-0.23917 1.831132,-1.83263 1.831132,-1.83261 0.140934,1.00508 c 0.07751,0.5528 0.191144,1.37148 0.252511,1.81929 0.08568,0.62525 0.162778,0.88382 0.332201,1.11417 0.661022,0.89876 2.397259,3.06865 3.188029,3.98429 0.851953,0.98649 2.474099,2.78347 3.127343,3.46439 l 0.779106,0.81213 0.102482,-1.88063 c 0.05636,-1.03435 0.138458,-2.57485 0.182429,-3.42333 0.04397,-0.84849 0.123092,-2.33334 0.175821,-3.29967 0.05273,-0.96633 0.123194,-2.29691 0.156588,-2.95684 l 0.06071,-1.19988 0.05712,0.7285 c 0.03141,0.40067 0.09856,1.44199 0.149203,2.31405 0.130905,2.25399 0.24027,4.04001 0.383112,6.25651 0.06835,1.0606 0.153669,2.39118 0.189597,2.95684 0.05131,0.80784 0.08697,-0.0379 0.166227,-3.94246 0.0555,-2.734 0.104784,-5.66192 0.109529,-6.50648 0.0047,-0.84456 0.02412,-1.51949 0.04305,-1.49985 0.03799,0.0394 0.229965,2.24223 0.481139,5.52087 0.05056,0.65993 0.146383,1.81696 0.212946,2.57117 0.06656,0.75421 0.165618,1.98837 0.22012,2.74258 0.199883,2.76603 0.229921,2.38376 0.249183,-3.17111 0.01914,-5.51896 0.05519,-6.10526 0.255628,-4.15672 0.102174,0.99329 0.182637,1.74126 0.387234,3.59963 0.07525,0.68351 0.155627,1.41629 0.178616,1.62841 0.02299,0.21212 0.07761,0.69422 0.121389,1.07132 0.04377,0.37711 0.119669,1.05204 0.168654,1.49985 0.04899,0.44781 0.146877,1.31558 0.217535,1.92837 0.07066,0.6128 0.190312,1.67341 0.265896,2.35691 0.07558,0.6835 0.17824,1.29235 0.228127,1.35299 0.04988,0.0606 0.537977,0.48525 1.084648,0.94357 0.54667,0.45832 1.006481,0.87054 1.0218,0.91606 0.08222,0.24429 -0.227503,0.0641 -0.984873,-0.57291 -1.313377,-1.10468 -1.178876,-1.04496 -1.119404,-0.49707 0.02814,0.25926 0.0948,0.85129 0.148128,1.31563 0.05333,0.46433 0.08477,0.85531 0.06987,0.86883 -0.0149,0.0135 -0.451337,-0.32323 -0.969855,-0.74835 z M 95.287,133.50756 c -0.55777,-0.24763 -1.344586,-0.34903 -1.945143,-0.25069 -0.281512,0.0461 -0.518092,0.084 -0.525732,0.0843 -0.04161,0.001 -0.124362,-0.79205 -0.201048,-1.92788 -0.189369,-2.8048 -0.346539,-4.81205 -0.39594,-5.05663 -0.02856,-0.14141 -0.0276,-0.23407 0.0022,-0.2059 0.04462,0.0423 0.722764,3.04152 1.004185,4.44129 0.04187,0.20824 0.09079,0.39329 0.108706,0.41121 0.01792,0.0179 0.06096,-0.85632 0.09565,-1.94276 0.03468,-1.08643 0.09268,-1.97534 0.128871,-1.97534 0.03619,0 0.133842,0.10383 0.216993,0.23074 0.18963,0.28941 1.553908,1.77991 2.947768,3.22049 l 1.06515,1.10085 -1.02096,1.02363 c -0.56153,0.56299 -1.04085,1.0209 -1.06515,1.01757 -0.0243,-0.003 -0.21128,-0.0802 -0.4155,-0.17089 z M 79.872593,114.96095 c -0.268967,-0.11698 -0.541206,-0.50655 -0.541206,-0.77446 0,-0.26956 0.273173,-0.65825 0.541374,-0.77031 0.369648,-0.15445 0.703227,-0.0745 0.959413,0.22997 0.390355,0.46391 0.226322,1.07902 -0.35221,1.32074 -0.336173,0.14046 -0.269259,0.14112 -0.607371,-0.006 z m 31.771477,19.85916 c 3.22088,-3.24849 5.35076,-6.17434 7.3152,-10.04898 1.96436,-3.87446 3.23608,-7.88792 3.85634,-12.1702 0.19503,-1.34655 0.33071,-2.89945 0.29774,-3.40768 l -0.0293,-0.45084 -11.31258,11.31359 -11.31257,11.31358 1.36232,1.36432 c 1.06974,1.07131 1.39174,1.34797 1.49929,1.28819 0.46154,-0.25658 0.85409,-0.33739 1.62584,-0.33473 0.72072,0.002 0.91839,0.0383 1.56165,0.28312 0.9317,0.35458 2.007,1.07162 2.77515,1.85057 0.3287,0.33332 0.63587,0.60604 0.68259,0.60604 0.0467,0 0.80195,-0.72314 1.67828,-1.60698 z m -1.63008,0.31515 c 0,-0.13827 0.20372,-0.41243 0.63081,-0.84891 l 0.63081,-0.64469 0.10006,-1.32844 c 0.055,-0.73064 0.13856,-1.77196 0.18561,-2.31405 0.11518,-1.32717 0.21815,-2.54553 0.3839,-4.54239 0.24946,-3.00532 0.25115,-3.00432 0.36503,0.21426 0.0584,1.64983 0.10555,3.49786 0.10484,4.10673 -6.9e-4,0.60886 0.0193,1.08639 0.0446,1.06118 0.0417,-0.0417 0.0951,-0.54071 0.38338,-3.58236 0.0514,-0.54208 0.1273,-1.33272 0.16872,-1.75696 0.0414,-0.42424 0.16487,-1.73554 0.27434,-2.91399 l 0.19903,-2.14264 0.044,4.32813 c 0.0242,2.38047 0.0532,4.10788 0.0643,3.83869 0.0111,-0.2692 0.0572,-0.86699 0.10242,-1.32844 0.0452,-0.46144 0.14274,-1.55249 0.21676,-2.42454 0.074,-0.87206 0.17043,-1.97123 0.21424,-2.44261 0.0438,-0.47138 0.1055,-1.25238 0.13709,-1.73554 0.0316,-0.48317 0.0851,-0.87848 0.11892,-0.87848 0.0338,0 0.0908,1.16666 0.12666,2.59259 0.0359,1.42593 0.0743,2.68901 0.0855,2.80686 0.0112,0.11784 0.0263,0.80885 0.0337,1.53556 0.007,0.72671 0.0303,1.30442 0.0509,1.28379 0.0206,-0.0206 0.0779,-0.63448 0.12729,-1.36414 0.0774,-1.14408 0.21427,-2.97597 0.48959,-6.55469 l 0.066,-0.85706 0.0618,0.64279 c 0.0687,0.71522 0.28995,3.42819 0.42985,5.2709 0.0501,0.65993 0.11609,1.50228 0.14665,1.87189 l 0.0556,0.67201 0.61356,-1.01483 c 1.29526,-2.14241 2.43841,-4.57006 3.30291,-7.01423 0.27139,-0.76732 0.41151,-1.29257 0.38867,-1.457 -0.0197,-0.14141 -0.1803,-0.71993 -0.357,-1.28558 -0.59584,-1.90744 -0.81358,-2.6489 -0.786,-2.67648 0.0151,-0.0151 0.27395,0.25957 0.57523,0.61036 0.30129,0.35079 0.55823,0.62736 0.571,0.6146 0.0128,-0.0128 -0.17188,-0.44093 -0.41029,-0.9515 -0.23841,-0.51057 -0.42238,-0.98005 -0.40882,-1.0433 0.0227,-0.10574 2.62792,-2.76734 2.70875,-2.76734 0.11478,0 -0.36935,3.17338 -0.72568,4.75666 -0.66041,2.93453 -1.7507,5.98325 -3.111,8.69912 -0.64552,1.28882 -1.56627,2.91078 -2.08488,3.67269 -0.21434,0.3149 -0.24723,0.43237 -0.21099,0.75381 0.0407,0.36088 0.0129,0.42216 -0.5309,1.17302 -1.24843,1.72363 -2.1399,2.78798 -3.49348,4.17092 l -0.9647,0.98561 0.0518,-0.34282 0.0518,-0.34282 -0.37333,0.34282 c -0.20534,0.18855 -0.39356,0.36211 -0.41827,0.38568 -0.0247,0.0236 -0.13171,0.11632 -0.23777,0.20612 -0.19171,0.16231 -0.19284,0.16207 -0.19284,-0.041 z m -7.50824,-2.82605 c -0.46643,-0.47358 -0.85779,-0.88846 -0.86968,-0.92195 -0.0119,-0.0335 0.72372,-0.80551 1.63471,-1.7156 l 1.65635,-1.65471 0.10168,1.26965 c 0.0559,0.69831 0.1039,1.50106 0.10662,1.78389 0.006,0.66871 0.0542,0.55041 0.55384,-1.37129 0.50989,-1.96116 0.5751,-2.19263 0.60835,-2.15938 0.015,0.015 -0.0114,0.35268 -0.0585,0.75048 -0.0472,0.39779 -0.12227,1.10893 -0.1669,1.58031 -0.19932,2.10549 -0.25867,2.67066 -0.30149,2.87114 -0.045,0.21064 -0.0579,0.2138 -0.76323,0.1868 -0.4761,-0.0182 -0.86992,0.0178 -1.17069,0.10713 -0.24927,0.074 -0.45992,0.1346 -0.4681,0.1346 -0.008,0 -0.39649,-0.38748 -0.86293,-0.86107 z m -2.82312,3.55041 c 0.16943,-0.065 0.38951,-0.47209 0.38951,-0.72045 0,-0.28132 -0.45219,-0.68331 -0.76865,-0.68331 -0.37606,0 -0.68834,0.3305 -0.68834,0.7285 0,0.53797 0.53815,0.87838 1.06748,0.67526 z m -0.86212,-10.47925 c 0.27987,-0.29213 0.2017,-0.34906 -0.49091,-0.35756 -0.60624,-0.007 -0.28987,-0.12364 0.5408,-0.19864 0.3525,-0.0318 0.66821,-0.0857 0.70156,-0.11973 0.0617,-0.0629 0.41448,-1.31646 0.41448,-1.47269 0,-0.0471 -0.14463,-0.15993 -0.3214,-0.25085 -0.429,-0.22064 -0.80156,-0.62524 -0.97991,-1.06416 l -0.14611,-0.35957 -0.005,0.32717 c -0.006,0.39048 -0.0263,0.38829 -1.07611,-0.11483 -1.91585,-0.91819 -2.82913,-2.53057 -2.53727,-4.47952 0.058,-0.38706 0.21868,-1.06096 0.35714,-1.49755 0.14863,-0.46863 0.25176,-0.98218 0.25176,-1.25366 0,-0.30745 0.0433,-0.49579 0.13063,-0.56828 0.18651,-0.15478 0.11042,-0.18505 -0.19636,-0.0781 -0.35268,0.12295 -0.58805,-0.007 -0.66657,-0.36941 -0.0768,-0.35389 -0.15963,-0.40489 -0.660422,-0.4065 -0.223906,-6.9e-4 -0.407102,-0.0391 -0.407102,-0.0853 0,-0.11049 0.63127,-0.43027 0.849384,-0.43027 0.0938,0 0.20141,-0.0524 0.23911,-0.11643 0.0377,-0.064 0.18424,-0.1782 0.32565,-0.25369 0.23354,-0.12466 0.23936,-0.13757 0.0635,-0.14069 -0.26136,-0.005 -0.70633,-0.41488 -0.70633,-0.65122 0,-0.28022 0.17489,-0.308 1.21253,-0.19262 0.69665,0.0775 1.00174,0.0796 1.19052,0.008 0.20271,-0.0765 0.25382,-0.0727 0.25382,0.0191 0,0.15946 -0.38567,0.44713 -0.68868,0.51368 -0.36768,0.0808 -0.38868,0.19535 -0.0668,0.36438 0.4366,0.22927 1.12254,0.95836 1.34985,1.43477 0.11246,0.23569 0.28788,0.71308 0.38983,1.06087 0.18042,0.61547 0.19549,0.63621 0.56477,0.77744 1.09878,0.4202 1.84655,0.89064 2.50985,1.57898 l 0.50204,0.521 -0.14526,-0.34074 c -0.30266,-0.71 -0.30357,-0.7147 -0.1479,-0.75723 0.0804,-0.022 0.3004,-0.0654 0.48895,-0.0966 0.5054,-0.0836 1.00396,-0.40878 1.22223,-0.79714 0.29962,-0.53309 0.26196,-1.17493 -0.12175,-2.0751 -0.37667,-0.88365 -0.44329,-1.28773 -0.24498,-1.48604 0.33049,-0.33049 0.80026,-0.0289 1.169,0.75058 l 0.24657,0.5212 7e-5,-0.35813 c 8e-5,-0.60787 0.42681,-0.83185 0.76519,-0.40166 0.14029,0.17834 0.17879,0.35403 0.18312,0.83563 l 0.005,0.6098 0.13985,-0.28112 c 0.23286,-0.46809 0.76703,-0.4746 0.882,-0.0107 0.0488,0.19687 -0.0738,0.87079 -0.22458,1.23462 -0.0593,0.14304 -0.0246,0.1324 0.20974,-0.0643 0.33446,-0.28077 0.52858,-0.29677 0.7418,-0.0612 0.14095,0.15574 0.14589,0.20877 0.0459,0.49281 -0.0616,0.17506 -0.26089,0.51808 -0.44288,0.76226 -0.31644,0.42458 -0.32067,0.43864 -0.0969,0.32192 0.31236,-0.16295 0.41648,-0.15483 0.61962,0.0483 0.35276,0.35276 0.16047,0.82219 -0.47138,1.15081 l -0.25712,0.13372 0.22957,5.1e-4 c 0.12626,2.6e-4 0.29018,0.0611 0.36425,0.13521 0.16113,0.16113 0.17766,0.58158 0.0276,0.70071 -0.18529,0.14705 -0.72448,0.20253 -1.38589,0.1426 -0.5969,-0.0541 -0.6447,-0.0735 -0.73883,-0.3008 -0.20714,-0.50008 -0.29594,-0.4365 -0.30671,0.21958 -0.0126,0.76765 -0.15044,1.37552 -0.47677,2.10263 -0.26835,0.59792 -0.51851,0.90775 -1.04712,1.29692 -0.43306,0.31882 -0.56565,0.31505 -0.56565,-0.0161 0,-0.15296 -0.0357,-0.24011 -0.0857,-0.20921 -0.0471,0.0291 -0.0857,0.11611 -0.0857,0.19329 0,0.42096 -0.80351,1.13047 -1.42724,1.26028 -0.28887,0.0601 -0.28609,0.0554 -0.65884,1.12058 l -0.21098,0.60292 0.34177,0.1967 c 0.42099,0.24229 0.36765,0.32631 -0.12061,0.18997 -0.31022,-0.0866 -0.41952,-0.0801 -0.70953,0.0422 -0.18856,0.0795 -0.45528,0.17727 -0.59272,0.21723 l -0.2499,0.0726 0.23377,-0.24401 z m -0.65819,-6.2255 c -0.44784,-0.16439 -0.94222,-0.5346 -1.16234,-0.8704 -0.31806,-0.4852 -0.22082,-1.0221 0.31399,-1.73381 0.21813,-0.29027 0.14071,-0.33349 -0.24244,-0.13535 -0.56078,0.28999 -0.855,1.26431 -0.55626,1.84202 0.23214,0.44891 1.22024,1.02135 1.75706,1.01793 0.17697,-0.001 0.15782,-0.0221 -0.11001,-0.12039 z m -9.187252,-11.13822 c 0.453691,-1.31994 0.503904,-1.1367 -0.496021,-1.81008 l -0.877071,-0.59064 1.075733,-0.0239 1.075733,-0.0239 0.288028,-0.94033 c 0.158416,-0.51718 0.311976,-0.94033 0.341242,-0.94033 0.02927,0 0.186925,0.42313 0.350351,0.94028 l 0.297137,0.94029 1.07132,0.0239 1.07132,0.0239 -0.814203,0.54709 c -0.447812,0.3009 -0.843062,0.57273 -0.878333,0.60407 -0.03527,0.0313 0.07373,0.47322 0.242218,0.98194 0.168492,0.50873 0.287261,0.94405 0.263931,0.96738 -0.02333,0.0233 -0.392661,-0.21465 -0.820733,-0.52885 l -0.778312,-0.57127 -0.749924,0.54791 c -0.412458,0.30135 -0.792772,0.57337 -0.845143,0.60449 -0.05237,0.0311 0.02986,-0.3073 0.182727,-0.75205 z m 17.756132,0.1964 c 0.10871,-0.33344 0.25225,-0.79012 0.31898,-1.01483 l 0.12133,-0.40857 -0.87138,-0.58686 -0.87139,-0.58686 1.07132,-0.0429 1.07132,-0.0429 0.29602,-0.92134 c 0.16281,-0.50673 0.31995,-0.92133 0.34921,-0.92133 0.0293,0 0.18243,0.42424 0.34039,0.94276 l 0.2872,0.94276 0.73488,0.01 c 1.0072,0.0131 1.18358,0.0252 1.24363,0.0851 0.0286,0.0285 -0.31529,0.29391 -0.76408,0.58984 -0.44879,0.29593 -0.81599,0.54734 -0.81599,0.55868 0,0.0113 0.13603,0.43588 0.30228,0.94341 0.16626,0.50753 0.2851,0.93998 0.26408,0.96099 -0.021,0.021 -0.38844,-0.21887 -0.81651,-0.53306 l -0.77831,-0.57127 -0.74993,0.54791 c -0.41246,0.30135 -0.7906,0.57202 -0.84031,0.6015 -0.0497,0.0295 -0.001,-0.21922 0.10726,-0.55266 z m -9.28038,-4.14719 c 0.10691,-0.27118 0.6501,-2.01554 0.6501,-2.0877 0,-0.0369 -0.43101,-0.35189 -0.95779,-0.70008 l -0.95779,-0.63308 1.19686,-0.0237 1.19685,-0.0237 0.11809,-0.40486 c 0.34156,-1.171019 0.594,-1.850769 0.64208,-1.729009 0.0289,0.0731 0.19669,0.57445 0.37297,1.11418 l 0.32051,0.981329 1.19201,0.0429 1.19202,0.0429 -0.95803,0.63307 c -0.52691,0.34819 -0.95803,0.67203 -0.95803,0.71963 0,0.0476 0.11992,0.45694 0.26648,0.90963 0.14656,0.45269 0.29908,0.93242 0.33893,1.06607 l 0.0725,0.243 -0.23181,-0.15019 c -0.12749,-0.0826 -0.52842,-0.37516 -0.89096,-0.65011 -0.36254,-0.27495 -0.70149,-0.4999 -0.75324,-0.4999 -0.0517,0 -0.44933,0.26367 -0.88354,0.58593 -1.00816,0.74825 -1.0507,0.77302 -0.96818,0.56372 z"
       id="path1052"
       sodipodi:nodetypes="ccssssssssccsscssccscsscsssssssssscscscsssscssscsssccccccscsssscscssssscssssssssssscccscssccccsssscsccssscccssssssssssscssssscccsssssssssscscsssssssssccscscsscsssssscscsssscsccssssscsssccssccsssccsccssssscccccsscsscscsssscccccsssssssccccssscsccccssscscscssccssssscssssssssssssssccscsssssssscssscscsccscssssssssssssccccssssssscscsssssssscssssssssssssscccssssscsssscssssscssssssssssssssssssssssscsscsssssscscsscsssscccssccccsccssscccsccsssscssscssssssscscsccccsccsscssssscssssscscccsssccssscccsscssscssssssssccscssscsscsscsccsssscsccscssssscsccsssscssccssssssssssccccscsssssssscssscccccsssscccscccssscccscssscsscccscccccsssccsssssscsscccsscccscscccsssccsssscc" />
    <text
       xml:space="preserve"
       style="font-size:6.35px;line-height:1.25;font-family:Audiowide;-inkscape-font-specification:'Audiowide, Normal';fill:#083a42;stroke-width:0.264583"
       x="54.527775"
       y="164.45605"
       id="text4482"><tspan
         sodipodi:role="line"
         id="tspan4480"
         style="font-style:normal;font-variant:normal;font-weight:normal;font-stretch:normal;font-size:11.2889px;font-family:'Fredoka One';-inkscape-font-specification:'Fredoka One, Normal';font-variant-ligatures:normal;font-variant-caps:normal;font-variant-numeric:normal;font-variant-east-asian:normal;fill:#083a42;stroke-width:0.264583"
         x="54.527775"
         y="164.45605">Sabor da Morte</tspan></text>
  </g>
</svg>
